<svg xmlns="http://www.w3.org/2000/svg" width="1200" height="420" viewBox="0 0 1200 420" role="img" aria-label="Evandro crimson subway header">
<defs>
  <linearGradient id="carBg" x1="0" y1="0" x2="0" y2="1"><stop stop-color="#090607"/><stop offset=".55" stop-color="#060506"/><stop offset="1" stop-color="#130609"/></linearGradient>
  <linearGradient id="windowBase" x1="0" x2="1"><stop stop-color="#2a0609"/><stop offset=".45" stop-color="#090607"/><stop offset="1" stop-color="#2e070a"/></linearGradient>
  <linearGradient id="floor" x1="0" y1="0" x2="0" y2="1"><stop stop-color="#090707"/><stop offset="1" stop-color="#26070d"/></linearGradient>
  <linearGradient id="rush" x1="0" x2="1"><stop stop-color="#ff1538" stop-opacity="0"/><stop offset=".42" stop-color="#ff1538" stop-opacity=".12"/><stop offset=".5" stop-color="#ff5b62" stop-opacity=".95"/><stop offset=".58" stop-color="#ff1538" stop-opacity=".16"/><stop offset="1" stop-color="#ff1538" stop-opacity="0"/></linearGradient>
  <linearGradient id="figureLight" x1="0" x2="1"><stop stop-color="#070707"/><stop offset=".55" stop-color="#151011"/><stop offset=".78" stop-color="#ff3a43"/><stop offset=".86" stop-color="#2b1114"/><stop offset="1" stop-color="#050505"/></linearGradient>
  <radialGradient id="redBloom"><stop stop-color="#ff4d55" stop-opacity=".85"/><stop offset=".35" stop-color="#ff1538" stop-opacity=".35"/><stop offset="1" stop-color="#ff1538" stop-opacity="0"/></radialGradient>
  <filter id="blur12"><feGaussianBlur stdDeviation="12"/></filter>
  <filter id="blur5"><feGaussianBlur stdDeviation="5"/></filter>
  <pattern id="grain" width="8" height="8" patternUnits="userSpaceOnUse"><circle cx="1" cy="2" r=".6" fill="#fff" opacity=".02"/><circle cx="6" cy="5" r=".5" fill="#ff1538" opacity=".025"/></pattern>
  <clipPath id="windows"><rect x="820" y="62" width="340" height="200" rx="2"/></clipPath>
  <clipPath id="personClip"><path d="M726 145c0-18 13-31 30-31s30 13 30 31c0 9-4 18-10 23l24 29 20 104-18 58h-94l-18-58 20-104 25-29c-6-6-9-14-9-23z"/></clipPath>
</defs>
<rect width="1200" height="420" fill="url(#carBg)"/>
<path d="M0 0H1200V48H0Z" fill="#050405"/>
<path d="M0 315H1200V420H0Z" fill="url(#floor)"/>
<path d="M0 50H44V315H0Z" fill="#15080a"/>
<path d="M1180 50H1200V315H1180Z" fill="#16090b"/>
<path d="M0 315L470 245H820L1200 315Z" fill="#0c0708" opacity=".85"/>
<g opacity=".9"><rect x="32" y="76" width="225" height="223" rx="5" fill="#0a0808" stroke="#541019" stroke-width="2"/><rect x="52" y="92" width="185" height="92" rx="3" fill="#15080a" stroke="#761323"/><path d="M145 76V299" stroke="#4a1119" stroke-width="3"/><path d="M50 204H238" stroke="#431018"/><rect x="24" y="62" width="245" height="10" fill="#22090d"/></g>
<rect x="802" y="48" width="378" height="230" rx="5" fill="#080606" stroke="#5b121c" stroke-width="3"/>
<g stroke="#53131c" stroke-width="5"><path d="M888 50V278"/><path d="M974 50V278"/><path d="M1060 50V278"/><path d="M1146 50V278"/></g>
<g fill="url(#windowBase)"><rect x="816" y="64" width="68" height="194"/><rect x="892" y="64" width="78" height="194"/><rect x="978" y="64" width="78" height="194"/><rect x="1064" y="64" width="78" height="194"/><rect x="1150" y="64" width="20" height="194"/></g>
<g clip-path="url(#windows)"><g><rect x="760" y="60" width="88" height="205" fill="#ff1a30" opacity=".82"/><rect x="888" y="60" width="42" height="205" fill="#ff4a2f" opacity=".96"/><rect x="990" y="60" width="125" height="205" fill="#ff241f" opacity=".9"/><rect x="1160" y="60" width="60" height="205" fill="#ff6a35" opacity=".9"/><animateTransform attributeName="transform" type="translate" values="420 0;-520 0" dur="1.25s" repeatCount="indefinite"/></g><g opacity=".55"><rect x="700" y="60" width="18" height="205" fill="#fff2e9"/><rect x="920" y="60" width="10" height="205" fill="#ff9b77"/><rect x="1120" y="60" width="16" height="205" fill="#fff0e5"/><animateTransform attributeName="transform" type="translate" values="480 0;-560 0" dur=".82s" repeatCount="indefinite"/></g></g>
<path d="M280 58H1005" stroke="#3f151b" stroke-width="5"/><g fill="none" stroke="#671521" stroke-width="3" opacity=".75"><path d="M420 58v28l-12 18h24l-12-18"/><path d="M560 58v28l-12 18h24l-12-18"/><path d="M700 58v28l-12 18h24l-12-18"/></g>
<g><ellipse cx="755" cy="368" rx="62" ry="13" fill="#000" opacity=".65"/><circle cx="756" cy="142" r="29" fill="#050505"/><path d="M731 167h50l20 38 17 96-18 57h-93l-17-57 17-96z" fill="url(#figureLight)"/><path d="M716 202l-55 82 11 8 63-74zM788 203l33 87 12-4-26-96z" fill="#070707"/><path d="M744 123l28 2 14 18-11 8-22-8-18 9-10-8z" fill="#090909"/><path d="M748 145h22" stroke="#ff6370" stroke-width="2" opacity=".7"/></g>
<g opacity=".78"><path d="M1280 70L880 145L670 355H835L1260 210Z" fill="url(#rush)" filter="url(#blur5)"><animateTransform attributeName="transform" type="translate" values="260 0;-650 0" dur="1.35s" repeatCount="indefinite"/></path><path d="M1360 20L970 120L795 420H890L1320 140Z" fill="#ff1538" opacity=".14" filter="url(#blur12)"><animateTransform attributeName="transform" type="translate" values="240 0;-700 0" dur="1.05s" repeatCount="indefinite"/></path></g>
<g clip-path="url(#personClip)"><rect x="620" y="100" width="105" height="280" fill="url(#rush)" transform="skewX(-14)"><animate attributeName="x" values="610;900;610" dur="1.7s" repeatCount="indefinite"/></rect></g>
<g opacity=".26"><path d="M845 300L1200 270V420H720Z" fill="url(#redBloom)"/><path d="M890 315L1125 315L1190 420H790Z" fill="#ff1538"><animate attributeName="opacity" values=".06;.24;.07" dur="1.2s" repeatCount="indefinite"/></path></g>
<rect width="1200" height="420" fill="url(#grain)"/>
<rect x="45" y="34" width="1110" height="352" rx="8" fill="#020203" opacity=".10" stroke="#ff1538" stroke-opacity=".13"/>
<g font-family="ui-monospace,SFMono-Regular,Menlo,Consolas,monospace"><text x="78" y="72" fill="#ffb2bd" font-size="15" letter-spacing="3">SYSTEM 01</text><circle cx="1065" cy="67" r="5" fill="#ff1538"><animate attributeName="opacity" values="1;.25;1" dur="2s" repeatCount="indefinite"/></circle><text x="1082" y="72" fill="#f0dadd" font-size="14">ONLINE</text></g>
<path d="M48 120H690L635 330H48Z" fill="#030303" opacity=".66"/>
<text x="78" y="215" fill="#fff" font-family="Arial,Helvetica,sans-serif" font-size="100" font-weight="800" letter-spacing="2">EVANDRO</text>
<rect x="78" y="247" width="320" height="4" fill="#ff1538"><animate attributeName="width" values="110;320;255;320" dur="6s" repeatCount="indefinite"/></rect>
<text x="80" y="300" fill="#ded5d6" font-family="ui-monospace,SFMono-Regular,Menlo,Consolas,monospace" font-size="22" letter-spacing="3">FULL-STACK DEVELOPER • 2D/3D ANIMATOR</text>
</svg>